<svg xmlns="http://www.w3.org/2000/svg" width="72" height="72" fill="none" viewBox="0 0 72 72"><path fill="#e0ecff" stroke="#3e74ff" stroke-miterlimit="10" stroke-width="2" d="M36.516 2H4.246A2.246 2.246 0 0 0 2 4.246v63.508A2.246 2.246 0 0 0 4.246 70h32.27a2.246 2.246 0 0 0 2.246-2.246V4.246A2.246 2.246 0 0 0 36.516 2Z"/><path fill="#fff" d="M36.645 8.366H4.116v56.88h32.53z"/><path fill="#3e74ff" d="M23.507 5.154h-6.052a.455.455 0 0 0 0 .91h6.052a.455.455 0 1 0 0-.91m-8.644 1.223a.769.769 0 1 0 0-1.537.769.769 0 0 0 0 1.537"/><path fill="#fdd998" stroke="#fbad41" stroke-miterlimit="10" stroke-width="1.457" d="M20.382 48.347c7.538 0 13.649-6.11 13.649-13.649S27.92 21.05 20.382 21.05 6.733 27.16 6.733 34.698s6.111 13.65 13.65 13.65Z"/></svg>