<svg width="80" height="72" viewBox="0 0 80 72" fill="none" xmlns="http://www.w3.org/2000/svg">
<g clip-path="url(#clip0_6764_6499)">
<path d="M0 30.3919C0 47.1769 13.6069 60.7838 30.3919 60.7838C47.1769 60.7838 60.7838 47.1769 60.7838 30.3919C60.7838 13.6069 47.1769 0 30.3919 0C13.6069 0 0 13.6069 0 30.3919Z" fill="#FFF7EC"/>
<path d="M33.425 33H28.585C25.7794 33.0027 23.0893 34.1586 21.105 36.2139C19.1206 38.2693 18.004 41.0563 18 43.9637L19 45H43L44 43.9637C43.996 41.0581 42.8808 38.2726 40.8986 36.2176C38.9164 34.1625 36.2289 33.0055 33.425 33Z" fill="url(#paint0_linear_6764_6499)"/>
<path d="M31.0006 31.4C32.3618 31.4 33.6924 30.9777 34.8242 30.1866C35.956 29.3954 36.8381 28.271 37.359 26.9553C37.8799 25.6397 38.0162 24.192 37.7507 22.7954C37.4851 21.3987 36.8296 20.1158 35.8671 19.1088C34.9046 18.1019 33.6783 17.4162 32.3432 17.1383C31.0082 16.8605 29.6244 17.0031 28.3668 17.5481C27.1092 18.093 26.0343 19.0159 25.2781 20.1999C24.5219 21.3839 24.1182 22.776 24.1182 24.2C24.1182 26.1096 24.8433 27.9409 26.134 29.2912C27.4247 30.6414 29.1753 31.4 31.0006 31.4Z" fill="url(#paint1_linear_6764_6499)"/>
<circle cx="49.8775" cy="43.1569" r="18.8052" fill="#FFE9CB"/>
<path d="M49.2734 23.0695C54.4659 22.9278 59.5102 24.8109 63.3428 28.3215C67.1753 31.8321 69.4969 36.6958 69.8184 41.8869C70.1183 46.7317 68.653 51.5077 65.7168 55.341L80.04 69.3293L80.834 70.1047L80.0576 70.8976L78.2207 72.7756L77.4463 73.5666L76.6543 72.7931L62.3291 58.8029C58.5601 61.8201 53.819 63.3826 48.9746 63.1779C43.785 62.9586 38.8839 60.7293 35.3037 56.9611C31.7235 53.1928 29.7435 48.1796 29.7822 42.9787C29.821 37.7781 31.8751 32.7955 35.5107 29.0812C39.1467 25.3669 44.081 23.2113 49.2734 23.0695ZM52.7549 27.8488C49.7086 27.2429 46.5512 27.5538 43.6816 28.7424C40.8119 29.9311 38.3585 31.9438 36.6328 34.5265C34.9072 37.1092 33.9863 40.146 33.9863 43.2521C33.9915 47.4157 35.6477 51.4076 38.5918 54.3517C41.536 57.2958 45.5278 58.9512 49.6914 58.9562C52.7976 58.9562 55.8343 58.0354 58.417 56.3098C60.9995 54.5841 63.0125 52.1315 64.2012 49.2619C65.3898 46.3922 65.7007 43.2342 65.0947 40.1877C64.4887 37.1414 62.9931 34.343 60.7969 32.1467C58.6005 29.9503 55.8014 28.4548 52.7549 27.8488Z" fill="#3E74FF" stroke="white" stroke-width="2.21705"/>
<path d="M64.9345 38.0272L44.1465 58.8029L47.2465 59.5319L49.617 59.7141L65.6639 43.6767V41.4898L64.9345 38.0272Z" fill="white"/>
<path d="M49.1634 26.4383L33.9609 41.1781L34.3145 45.9158L36.0822 50.3027L57.8253 28.7194L53.9363 26.9647L49.1634 26.4383Z" fill="white"/>
<path d="M59.4501 30.4033L36.3496 53.5037L37.633 54.9704L60.9168 31.6866L59.4501 30.4033Z" fill="white"/>
<path d="M58.2295 32.675L59.9102 34.4143L60.1104 34.6223L59.9102 34.8293L59.2822 35.4788L61.5781 37.8547L61.7783 38.0618L61.5781 38.2698L59.8975 40.009L59.6826 40.2307L59.4678 40.009L57.1855 37.6477L56.7803 38.0676L58.2422 39.5803L58.4424 39.7883L58.2422 39.9954L56.5615 41.7346L56.3467 41.9573L56.1318 41.7346L54.6846 40.2366L51.6504 43.3762C53.0987 45.8406 52.7963 49.0969 50.7354 51.2297C48.3113 53.7383 44.3762 53.7383 41.9521 51.2297C39.5338 48.727 39.534 44.673 41.9521 42.1702C44.0116 40.0389 47.1628 39.7175 49.5518 41.2102L57.7998 32.675L58.0146 32.4534L58.2295 32.675ZM48.625 44.3245C47.364 43.0194 45.3235 43.0194 44.0625 44.3245C42.7961 45.6352 42.796 47.7647 44.0625 49.0754C45.3235 50.3804 47.364 50.3803 48.625 49.0754C49.8916 47.7647 49.8915 45.6352 48.625 44.3245Z" fill="#FA7828" stroke="white" stroke-width="0.597621" stroke-miterlimit="10"/>
</g>
<defs>
<linearGradient id="paint0_linear_6764_6499" x1="18.2151" y1="38.9996" x2="44" y2="38.9996" gradientUnits="userSpaceOnUse">
<stop stop-color="#FF6633"/>
<stop offset="1" stop-color="#F6821F"/>
</linearGradient>
<linearGradient id="paint1_linear_6764_6499" x1="18.2151" y1="38.9996" x2="44" y2="38.9996" gradientUnits="userSpaceOnUse">
<stop stop-color="#FF6633"/>
<stop offset="1" stop-color="#F6821F"/>
</linearGradient>
<clipPath id="clip0_6764_6499">
<rect width="79.2651" height="72" fill="white"/>
</clipPath>
</defs>
</svg>
